# Blender 4.2.1 LTS
# www.blender.org
mtllib Sphere.mtl
o Sphere
v 0.000000 0.191342 -0.461940
v 0.000000 0.000000 -0.500000
v 0.000000 -0.191342 -0.461940
v 0.000000 -0.461940 -0.191342
v 0.073223 0.461940 -0.176777
v 0.135299 0.353553 -0.326641
v 0.176777 0.191342 -0.426777
v 0.191342 0.000000 -0.461940
v 0.176777 -0.191342 -0.426777
v 0.135299 -0.353553 -0.326641
v 0.073223 -0.461940 -0.176777
v 0.135299 0.461940 -0.135299
v 0.250000 0.353553 -0.250000
v 0.326641 0.191342 -0.326641
v 0.353553 0.000000 -0.353553
v 0.326641 -0.191342 -0.326641
v 0.250000 -0.353553 -0.250000
v 0.135299 -0.461940 -0.135299
v 0.176777 0.461940 -0.073223
v 0.326641 0.353553 -0.135299
v 0.426777 0.191342 -0.176777
v 0.461940 0.000000 -0.191342
v 0.426777 -0.191342 -0.176777
v 0.326641 -0.353553 -0.135299
v 0.176777 -0.461940 -0.073223
v 0.191342 0.461940 0.000000
v 0.353553 0.353553 0.000000
v 0.461940 0.191342 0.000000
v 0.500000 0.000000 0.000000
v 0.461940 -0.191342 0.000000
v 0.353553 -0.353553 0.000000
v 0.191342 -0.461940 0.000000
v 0.176777 0.461940 0.073223
v 0.326641 0.353553 0.135299
v 0.426777 0.191342 0.176777
v 0.461940 0.000000 0.191342
v 0.426777 -0.191342 0.176777
v 0.326641 -0.353553 0.135299
v 0.176777 -0.461940 0.073223
v 0.135299 0.461940 0.135299
v 0.250000 0.353553 0.250000
v 0.326641 0.191342 0.326641
v 0.353553 0.000000 0.353553
v 0.326641 -0.191342 0.326641
v 0.250000 -0.353553 0.250000
v 0.135299 -0.461940 0.135299
v 0.073223 0.461940 0.176777
v 0.135299 0.353553 0.326641
v 0.176777 0.191342 0.426777
v 0.191342 0.000000 0.461940
v 0.176777 -0.191342 0.426777
v 0.135299 -0.353553 0.326641
v 0.073223 -0.461940 0.176777
v -0.000000 0.461940 0.191342
v -0.000000 0.353553 0.353553
v -0.000000 0.191342 0.461940
v -0.000000 0.000000 0.500000
v -0.000000 -0.191342 0.461940
v -0.000000 -0.353553 0.353553
v -0.000000 -0.461940 0.191342
v 0.000000 -0.500000 0.000000
v 0.000000 0.500000 0.000000
v -0.073223 0.461940 0.176777
v -0.135299 0.353553 0.326641
v -0.176777 0.191342 0.426777
v -0.191342 0.000000 0.461940
v -0.176777 -0.191342 0.426777
v -0.135299 -0.353553 0.326641
v -0.073223 -0.461940 0.176777
v -0.135299 0.461940 0.135299
v -0.250000 0.353553 0.250000
v -0.326641 0.191342 0.326641
v -0.353554 0.000000 0.353553
v -0.326641 -0.191342 0.326641
v -0.250000 -0.353553 0.250000
v -0.135299 -0.461940 0.135299
v -0.176777 0.461940 0.073223
v -0.326641 0.353553 0.135299
v -0.426777 0.191342 0.176777
v -0.461940 0.000000 0.191341
v -0.426777 -0.191342 0.176777
v -0.326641 -0.353553 0.135299
v -0.176777 -0.461940 0.073223
v -0.191342 0.461940 -0.000000
v -0.353553 0.353553 -0.000000
v -0.461940 0.191342 -0.000000
v -0.500000 0.000000 -0.000000
v -0.461940 -0.191342 -0.000000
v -0.353553 -0.353553 -0.000000
v -0.191342 -0.461940 -0.000000
v -0.176777 0.461940 -0.073223
v -0.326641 0.353553 -0.135299
v -0.426777 0.191342 -0.176777
v -0.461940 0.000000 -0.191342
v -0.426777 -0.191342 -0.176777
v -0.326641 -0.353553 -0.135299
v -0.176777 -0.461940 -0.073223
v -0.135299 0.461940 -0.135299
v -0.250000 0.353553 -0.250000
v -0.326641 0.191342 -0.326641
v -0.353553 0.000000 -0.353554
v -0.326641 -0.191342 -0.326641
v -0.250000 -0.353553 -0.250000
v -0.135299 -0.461940 -0.135299
v -0.073223 0.461940 -0.176777
v -0.135299 0.353553 -0.326641
v -0.176776 0.191342 -0.426777
v -0.191341 0.000000 -0.461940
v -0.176776 -0.191342 -0.426777
v -0.135299 -0.353553 -0.326641
v -0.073223 -0.461940 -0.176777
v 0.000000 0.461940 -0.191342
v 0.000000 0.353553 -0.353553
v 0.000000 -0.353553 -0.353553
vn 0.0388 0.9800 -0.1949
vn 0.0388 -0.9800 -0.1949
vn 0.1632 -0.5481 -0.8203
vn 0.1915 0.1915 -0.9626
vn 0.1098 0.8264 -0.5522
vn 0.1098 -0.8264 -0.5522
vn 0.1915 -0.1915 -0.9626
vn 0.1632 0.5481 -0.8203
vn 0.5453 0.1915 -0.8161
vn 0.3128 0.8264 -0.4681
vn 0.3128 -0.8264 -0.4681
vn 0.5453 -0.1915 -0.8161
vn 0.4647 0.5481 -0.6954
vn 0.1104 0.9800 -0.1653
vn 0.1104 -0.9800 -0.1653
vn 0.4647 -0.5481 -0.6954
vn 0.4681 -0.8264 -0.3128
vn 0.8161 -0.1915 -0.5453
vn 0.6954 0.5481 -0.4647
vn 0.1653 0.9800 -0.1104
vn 0.1653 -0.9800 -0.1104
vn 0.6954 -0.5481 -0.4647
vn 0.8161 0.1915 -0.5453
vn 0.4681 0.8264 -0.3128
vn 0.8203 0.5481 -0.1632
vn 0.1949 0.9800 -0.0388
vn 0.1949 -0.9800 -0.0388
vn 0.8203 -0.5481 -0.1632
vn 0.9626 0.1915 -0.1915
vn 0.5522 0.8264 -0.1098
vn 0.5522 -0.8264 -0.1098
vn 0.9626 -0.1915 -0.1915
vn 0.1949 -0.9800 0.0388
vn 0.8203 -0.5481 0.1632
vn 0.9626 0.1915 0.1915
vn 0.5522 0.8264 0.1098
vn 0.5522 -0.8264 0.1098
vn 0.9626 -0.1915 0.1915
vn 0.8203 0.5481 0.1632
vn 0.1949 0.9800 0.0388
vn 0.4681 0.8264 0.3128
vn 0.4681 -0.8264 0.3128
vn 0.8161 -0.1915 0.5453
vn 0.6954 0.5481 0.4647
vn 0.1653 0.9800 0.1104
vn 0.1653 -0.9800 0.1104
vn 0.6954 -0.5481 0.4647
vn 0.8161 0.1915 0.5453
vn 0.3128 -0.8264 0.4681
vn 0.5453 -0.1915 0.8161
vn 0.4647 0.5481 0.6954
vn 0.1104 0.9800 0.1653
vn 0.1104 -0.9800 0.1653
vn 0.4647 -0.5481 0.6954
vn 0.5453 0.1915 0.8161
vn 0.3128 0.8264 0.4681
vn 0.0388 0.9800 0.1949
vn 0.0388 -0.9800 0.1949
vn 0.1632 -0.5481 0.8203
vn 0.1915 0.1915 0.9626
vn 0.1098 0.8264 0.5522
vn 0.1098 -0.8264 0.5522
vn 0.1915 -0.1915 0.9626
vn 0.1632 0.5481 0.8203
vn -0.1632 -0.5481 0.8203
vn -0.1915 0.1915 0.9626
vn -0.1098 0.8264 0.5522
vn -0.1098 -0.8264 0.5522
vn -0.1915 -0.1915 0.9626
vn -0.1632 0.5481 0.8203
vn -0.0388 0.9800 0.1949
vn -0.0388 -0.9800 0.1949
vn -0.3128 -0.8264 0.4681
vn -0.5453 -0.1915 0.8161
vn -0.4647 0.5481 0.6954
vn -0.1104 0.9800 0.1653
vn -0.1104 -0.9800 0.1653
vn -0.4647 -0.5481 0.6954
vn -0.5453 0.1915 0.8161
vn -0.3128 0.8264 0.4681
vn -0.8161 -0.1915 0.5453
vn -0.6954 0.5481 0.4647
vn -0.1653 0.9800 0.1104
vn -0.1653 -0.9800 0.1104
vn -0.6954 -0.5481 0.4647
vn -0.8161 0.1915 0.5453
vn -0.4681 0.8264 0.3128
vn -0.4681 -0.8264 0.3128
vn -0.1949 -0.9800 0.0388
vn -0.8203 -0.5481 0.1632
vn -0.9626 0.1915 0.1915
vn -0.5522 0.8264 0.1098
vn -0.5522 -0.8264 0.1098
vn -0.9626 -0.1915 0.1915
vn -0.8203 0.5481 0.1632
vn -0.1949 0.9800 0.0388
vn -0.9626 0.1915 -0.1915
vn -0.5522 0.8264 -0.1098
vn -0.5522 -0.8264 -0.1098
vn -0.9626 -0.1915 -0.1915
vn -0.8203 0.5481 -0.1632
vn -0.1949 0.9800 -0.0388
vn -0.1949 -0.9800 -0.0388
vn -0.8203 -0.5481 -0.1632
vn -0.4681 -0.8264 -0.3128
vn -0.8161 -0.1915 -0.5453
vn -0.6954 0.5481 -0.4647
vn -0.1653 0.9800 -0.1104
vn -0.1653 -0.9800 -0.1104
vn -0.6954 -0.5481 -0.4647
vn -0.8161 0.1915 -0.5453
vn -0.4681 0.8264 -0.3128
vn -0.4647 0.5481 -0.6954
vn -0.1104 0.9800 -0.1653
vn -0.1104 -0.9800 -0.1653
vn -0.4647 -0.5481 -0.6954
vn -0.5453 0.1915 -0.8161
vn -0.3128 0.8264 -0.4681
vn -0.3128 -0.8264 -0.4681
vn -0.5453 -0.1915 -0.8161
vn -0.0388 -0.9800 -0.1949
vn -0.1632 -0.5481 -0.8203
vn -0.1915 0.1915 -0.9626
vn -0.1098 0.8264 -0.5522
vn -0.1098 -0.8264 -0.5522
vn -0.1915 -0.1915 -0.9626
vn -0.1632 0.5481 -0.8203
vn -0.0388 0.9800 -0.1949
vt 0.750000 0.875000
vt 0.718750 1.000000
vt 0.687500 0.875000
vt 0.718750 0.000000
vt 0.750000 0.125000
vt 0.687500 0.125000
vt 0.750000 0.250000
vt 0.687500 0.375000
vt 0.687500 0.250000
vt 0.750000 0.625000
vt 0.687500 0.500000
vt 0.750000 0.500000
vt 0.750000 0.750000
vt 0.687500 0.750000
vt 0.750000 0.375000
vt 0.687500 0.625000
vt 0.625000 0.500000
vt 0.625000 0.750000
vt 0.625000 0.125000
vt 0.625000 0.375000
vt 0.625000 0.625000
vt 0.656250 1.000000
vt 0.625000 0.875000
vt 0.656250 0.000000
vt 0.625000 0.250000
vt 0.562500 0.125000
vt 0.562500 0.375000
vt 0.562500 0.625000
vt 0.593750 1.000000
vt 0.562500 0.875000
vt 0.593750 0.000000
vt 0.562500 0.250000
vt 0.562500 0.500000
vt 0.562500 0.750000
vt 0.500000 0.750000
vt 0.500000 0.625000
vt 0.531250 1.000000
vt 0.500000 0.875000
vt 0.531250 0.000000
vt 0.500000 0.125000
vt 0.500000 0.250000
vt 0.500000 0.500000
vt 0.500000 0.375000
vt 0.468750 0.000000
vt 0.437500 0.125000
vt 0.437500 0.250000
vt 0.437500 0.500000
vt 0.437500 0.875000
vt 0.437500 0.750000
vt 0.437500 0.375000
vt 0.437500 0.625000
vt 0.468750 1.000000
vt 0.375000 0.875000
vt 0.375000 0.750000
vt 0.375000 0.250000
vt 0.375000 0.125000
vt 0.375000 0.375000
vt 0.375000 0.625000
vt 0.406250 1.000000
vt 0.406250 0.000000
vt 0.375000 0.500000
vt 0.312500 0.125000
vt 0.312500 0.500000
vt 0.312500 0.375000
vt 0.312500 0.625000
vt 0.343750 1.000000
vt 0.312500 0.875000
vt 0.343750 0.000000
vt 0.312500 0.250000
vt 0.312500 0.750000
vt 0.281250 1.000000
vt 0.250000 0.875000
vt 0.281250 0.000000
vt 0.250000 0.125000
vt 0.250000 0.250000
vt 0.250000 0.625000
vt 0.250000 0.500000
vt 0.250000 0.750000
vt 0.250000 0.375000
vt 0.187500 0.375000
vt 0.187500 0.250000
vt 0.187500 0.500000
vt 0.187500 0.750000
vt 0.187500 0.125000
vt 0.187500 0.625000
vt 0.218750 1.000000
vt 0.187500 0.875000
vt 0.218750 0.000000
vt 0.125000 0.250000
vt 0.125000 0.125000
vt 0.125000 0.375000
vt 0.125000 0.625000
vt 0.156250 1.000000
vt 0.125000 0.875000
vt 0.156250 0.000000
vt 0.125000 0.500000
vt 0.125000 0.750000
vt 0.062500 0.375000
vt 0.062500 0.625000
vt 0.093750 1.000000
vt 0.062500 0.875000
vt 0.093750 0.000000
vt 0.062500 0.125000
vt 0.062500 0.250000
vt 0.062500 0.500000
vt 0.062500 0.750000
vt 0.031250 0.000000
vt 0.000000 0.125000
vt 0.000000 0.375000
vt 0.000000 0.250000
vt 0.000000 0.625000
vt 0.000000 0.500000
vt 0.000000 0.875000
vt 0.000000 0.750000
vt 0.031250 1.000000
vt 1.000000 0.500000
vt 0.937500 0.625000
vt 0.937500 0.500000
vt 1.000000 0.875000
vt 0.937500 0.750000
vt 1.000000 0.750000
vt 1.000000 0.250000
vt 0.937500 0.125000
vt 1.000000 0.125000
vt 0.937500 0.375000
vt 1.000000 0.375000
vt 1.000000 0.625000
vt 0.968750 1.000000
vt 0.937500 0.875000
vt 0.968750 0.000000
vt 0.937500 0.250000
vt 0.875000 0.125000
vt 0.875000 0.375000
vt 0.875000 0.625000
vt 0.906250 1.000000
vt 0.875000 0.875000
vt 0.906250 0.000000
vt 0.875000 0.250000
vt 0.875000 0.500000
vt 0.875000 0.750000
vt 0.812500 0.625000
vt 0.843750 1.000000
vt 0.812500 0.875000
vt 0.843750 0.000000
vt 0.812500 0.125000
vt 0.812500 0.375000
vt 0.812500 0.250000
vt 0.812500 0.500000
vt 0.812500 0.750000
vt 0.781250 0.000000
vt 0.781250 1.000000
s 0
usemtl 
f 112/1/1 62/2/1 5/3/1
f 61/4/2 4/5/2 11/6/2
f 114/7/3 9/8/3 10/9/3
f 1/10/4 8/11/4 2/12/4
f 113/13/5 5/3/5 6/14/5
f 114/7/6 11/6/6 4/5/6
f 2/12/7 9/8/7 3/15/7
f 113/13/8 7/16/8 1/10/8
f 7/16/9 15/17/9 8/11/9
f 5/3/10 13/18/10 6/14/10
f 10/9/11 18/19/11 11/6/11
f 9/8/12 15/17/12 16/20/12
f 6/14/13 14/21/13 7/16/13
f 5/3/14 62/22/14 12/23/14
f 61/24/15 11/6/15 18/19/15
f 9/8/16 17/25/16 10/9/16
f 17/25/17 25/26/17 18/19/17
f 15/17/18 23/27/18 16/20/18
f 13/18/19 21/28/19 14/21/19
f 12/23/20 62/29/20 19/30/20
f 61/31/21 18/19/21 25/26/21
f 17/25/22 23/27/22 24/32/22
f 15/17/23 21/28/23 22/33/23
f 12/23/24 20/34/24 13/18/24
f 21/28/25 27/35/25 28/36/25
f 19/30/26 62/37/26 26/38/26
f 61/39/27 25/26/27 32/40/27
f 23/27/28 31/41/28 24/32/28
f 21/28/29 29/42/29 22/33/29
f 19/30/30 27/35/30 20/34/30
f 24/32/31 32/40/31 25/26/31
f 23/27/32 29/42/32 30/43/32
f 61/44/33 32/40/33 39/45/33
f 30/43/34 38/46/34 31/41/34
f 28/36/35 36/47/35 29/42/35
f 27/35/36 33/48/36 34/49/36
f 32/40/37 38/46/37 39/45/37
f 29/42/38 37/50/38 30/43/38
f 27/35/39 35/51/39 28/36/39
f 26/38/40 62/52/40 33/48/40
f 34/49/41 40/53/41 41/54/41
f 39/45/42 45/55/42 46/56/42
f 36/47/43 44/57/43 37/50/43
f 34/49/44 42/58/44 35/51/44
f 33/48/45 62/59/45 40/53/45
f 61/60/46 39/45/46 46/56/46
f 37/50/47 45/55/47 38/46/47
f 36/47/48 42/58/48 43/61/48
f 45/55/49 53/62/49 46/56/49
f 44/57/50 50/63/50 51/64/50
f 41/54/51 49/65/51 42/58/51
f 40/53/52 62/66/52 47/67/52
f 61/68/53 46/56/53 53/62/53
f 45/55/54 51/64/54 52/69/54
f 42/58/55 50/63/55 43/61/55
f 40/53/56 48/70/56 41/54/56
f 47/67/57 62/71/57 54/72/57
f 61/73/58 53/62/58 60/74/58
f 51/64/59 59/75/59 52/69/59
f 50/63/60 56/76/60 57/77/60
f 47/67/61 55/78/61 48/70/61
f 53/62/62 59/75/62 60/74/62
f 50/63/63 58/79/63 51/64/63
f 48/70/64 56/76/64 49/65/64
f 59/75/65 67/80/65 68/81/65
f 56/76/66 66/82/66 57/77/66
f 54/72/67 64/83/67 55/78/67
f 59/75/68 69/84/68 60/74/68
f 57/77/69 67/80/69 58/79/69
f 55/78/70 65/85/70 56/76/70
f 54/72/71 62/86/71 63/87/71
f 61/88/72 60/74/72 69/84/72
f 69/84/73 75/89/73 76/90/73
f 66/82/74 74/91/74 67/80/74
f 64/83/75 72/92/75 65/85/75
f 63/87/76 62/93/76 70/94/76
f 61/95/77 69/84/77 76/90/77
f 68/81/78 74/91/78 75/89/78
f 66/82/79 72/92/79 73/96/79
f 63/87/80 71/97/80 64/83/80
f 73/96/81 81/98/81 74/91/81
f 71/97/82 79/99/82 72/92/82
f 70/94/83 62/100/83 77/101/83
f 61/102/84 76/90/84 83/103/84
f 75/89/85 81/98/85 82/104/85
f 73/96/86 79/99/86 80/105/86
f 70/94/87 78/106/87 71/97/87
f 75/89/88 83/103/88 76/90/88
f 61/107/89 83/103/89 90/108/89
f 82/104/90 88/109/90 89/110/90
f 80/105/91 86/111/91 87/112/91
f 78/106/92 84/113/92 85/114/92
f 82/104/93 90/108/93 83/103/93
f 80/105/94 88/109/94 81/98/94
f 78/106/95 86/111/95 79/99/95
f 77/101/96 62/115/96 84/113/96
f 87/116/97 93/117/97 94/118/97
f 84/119/98 92/120/98 85/121/98
f 89/122/99 97/123/99 90/124/99
f 87/116/100 95/125/100 88/126/100
f 85/121/101 93/117/101 86/127/101
f 84/119/102 62/128/102 91/129/102
f 61/130/103 90/124/103 97/123/103
f 88/126/104 96/131/104 89/122/104
f 96/131/105 104/132/105 97/123/105
f 94/118/106 102/133/106 95/125/106
f 92/120/107 100/134/107 93/117/107
f 91/129/108 62/135/108 98/136/108
f 61/137/109 97/123/109 104/132/109
f 96/131/110 102/133/110 103/138/110
f 94/118/111 100/134/111 101/139/111
f 91/129/112 99/140/112 92/120/112
f 99/140/113 107/141/113 100/134/113
f 98/136/114 62/142/114 105/143/114
f 61/144/115 104/132/115 111/145/115
f 103/138/116 109/146/116 110/147/116
f 101/139/117 107/141/117 108/148/117
f 98/136/118 106/149/118 99/140/118
f 103/138/119 111/145/119 104/132/119
f 101/139/120 109/146/120 102/133/120
f 61/150/121 111/145/121 4/5/121
f 110/147/122 3/15/122 114/7/122
f 107/141/123 2/12/123 108/148/123
f 106/149/124 112/1/124 113/13/124
f 110/147/125 4/5/125 111/145/125
f 108/148/126 3/15/126 109/146/126
f 106/149/127 1/10/127 107/141/127
f 105/143/128 62/151/128 112/1/128
f 114/7/3 3/15/3 9/8/3
f 1/10/4 7/16/4 8/11/4
f 113/13/5 112/1/5 5/3/5
f 114/7/6 10/9/6 11/6/6
f 2/12/7 8/11/7 9/8/7
f 113/13/8 6/14/8 7/16/8
f 7/16/9 14/21/9 15/17/9
f 5/3/10 12/23/10 13/18/10
f 10/9/11 17/25/11 18/19/11
f 9/8/12 8/11/12 15/17/12
f 6/14/13 13/18/13 14/21/13
f 9/8/16 16/20/16 17/25/16
f 17/25/17 24/32/17 25/26/17
f 15/17/18 22/33/18 23/27/18
f 13/18/19 20/34/19 21/28/19
f 17/25/22 16/20/22 23/27/22
f 15/17/23 14/21/23 21/28/23
f 12/23/24 19/30/24 20/34/24
f 21/28/25 20/34/25 27/35/25
f 23/27/28 30/43/28 31/41/28
f 21/28/29 28/36/29 29/42/29
f 19/30/30 26/38/30 27/35/30
f 24/32/31 31/41/31 32/40/31
f 23/27/32 22/33/32 29/42/32
f 30/43/34 37/50/34 38/46/34
f 28/36/35 35/51/35 36/47/35
f 27/35/36 26/38/36 33/48/36
f 32/40/37 31/41/37 38/46/37
f 29/42/38 36/47/38 37/50/38
f 27/35/39 34/49/39 35/51/39
f 34/49/41 33/48/41 40/53/41
f 39/45/42 38/46/42 45/55/42
f 36/47/43 43/61/43 44/57/43
f 34/49/44 41/54/44 42/58/44
f 37/50/47 44/57/47 45/55/47
f 36/47/48 35/51/48 42/58/48
f 45/55/49 52/69/49 53/62/49
f 44/57/50 43/61/50 50/63/50
f 41/54/51 48/70/51 49/65/51
f 45/55/54 44/57/54 51/64/54
f 42/58/55 49/65/55 50/63/55
f 40/53/56 47/67/56 48/70/56
f 51/64/59 58/79/59 59/75/59
f 50/63/60 49/65/60 56/76/60
f 47/67/61 54/72/61 55/78/61
f 53/62/62 52/69/62 59/75/62
f 50/63/63 57/77/63 58/79/63
f 48/70/64 55/78/64 56/76/64
f 59/75/65 58/79/65 67/80/65
f 56/76/66 65/85/66 66/82/66
f 54/72/67 63/87/67 64/83/67
f 59/75/68 68/81/68 69/84/68
f 57/77/69 66/82/69 67/80/69
f 55/78/70 64/83/70 65/85/70
f 69/84/73 68/81/73 75/89/73
f 66/82/74 73/96/74 74/91/74
f 64/83/75 71/97/75 72/92/75
f 68/81/78 67/80/78 74/91/78
f 66/82/79 65/85/79 72/92/79
f 63/87/80 70/94/80 71/97/80
f 73/96/81 80/105/81 81/98/81
f 71/97/82 78/106/82 79/99/82
f 75/89/85 74/91/85 81/98/85
f 73/96/86 72/92/86 79/99/86
f 70/94/87 77/101/87 78/106/87
f 75/89/88 82/104/88 83/103/88
f 82/104/90 81/98/90 88/109/90
f 80/105/91 79/99/91 86/111/91
f 78/106/92 77/101/92 84/113/92
f 82/104/93 89/110/93 90/108/93
f 80/105/94 87/112/94 88/109/94
f 78/106/95 85/114/95 86/111/95
f 87/116/97 86/127/97 93/117/97
f 84/119/98 91/129/98 92/120/98
f 89/122/99 96/131/99 97/123/99
f 87/116/100 94/118/100 95/125/100
f 85/121/101 92/120/101 93/117/101
f 88/126/104 95/125/104 96/131/104
f 96/131/105 103/138/105 104/132/105
f 94/118/106 101/139/106 102/133/106
f 92/120/107 99/140/107 100/134/107
f 96/131/110 95/125/110 102/133/110
f 94/118/111 93/117/111 100/134/111
f 91/129/112 98/136/112 99/140/112
f 99/140/113 106/149/113 107/141/113
f 103/138/116 102/133/116 109/146/116
f 101/139/117 100/134/117 107/141/117
f 98/136/118 105/143/118 106/149/118
f 103/138/119 110/147/119 111/145/119
f 101/139/120 108/148/120 109/146/120
f 110/147/122 109/146/122 3/15/122
f 107/141/123 1/10/123 2/12/123
f 106/149/124 105/143/124 112/1/124
f 110/147/125 114/7/125 4/5/125
f 108/148/126 2/12/126 3/15/126
f 106/149/127 113/13/127 1/10/127
