# Blender 4.2.1 LTS
# www.blender.org
mtllib Room.mtl
o Room
v 4.000000 3.000001 -2.000000
v 4.000000 3.000001 2.000000
v 4.000000 0.000000 -2.000000
v 4.000000 0.000000 2.000000
v -4.000000 0.000000 2.000000
v -4.000000 0.000000 -2.000000
v -4.000000 3.000000 2.000000
v -4.000000 3.000000 -2.000000
v -0.500000 0.000000 -2.000000
v -0.500000 3.000000 2.000000
v -0.500000 0.000000 2.000000
v -0.500000 3.000000 -2.000000
v -0.500000 3.000000 -4.000000
v -4.000000 3.000000 -4.000000
v -4.000000 0.000000 -4.000000
v -0.500000 0.000000 -4.000000
v -0.600000 0.000000 -2.000000
v -0.750000 0.700000 -2.000000
v 0.600000 -0.000000 -2.000000
v 0.750000 0.700000 -2.000000
v -0.600000 0.000000 -1.000000
v -0.750000 0.700000 -1.000000
v 0.600000 -0.000000 -1.000000
v 0.750000 0.700000 -1.000000
v 0.750000 0.000000 -2.000000
v -0.750000 -0.000000 -2.000000
v 0.750000 0.000000 -1.000000
v -0.750000 -0.000000 -1.000000
v 0.600000 0.500000 -2.000000
v -0.600000 0.500000 -2.000000
v 0.600000 0.500000 -1.000000
v -0.600000 0.500000 -1.000000
vn -0.0000 -1.0000 -0.0000
vn -1.0000 -0.0000 -0.0000
vn -0.0000 1.0000 -0.0000
vn -0.0000 -0.0000 1.0000
vn -0.0000 -0.0000 -1.0000
vn 1.0000 -0.0000 -0.0000
vt 1.000000 0.000000
vt 0.000000 1.000000
vt 0.000000 0.000000
vt 1.000000 0.500000
vt 0.000000 0.500000
vt 0.625000 0.250000
vt 0.375000 0.500000
vt 0.375000 0.250000
vt 0.625000 0.750000
vt 0.375000 1.000000
vt 0.375000 0.750000
vt 0.125000 0.750000
vt 0.875000 0.500000
vt 0.625000 0.500000
vt 0.125000 0.500000
vt 0.875000 0.750000
vt 1.000000 1.000000
vt 0.625000 1.000000
s 0
f 2/1/1 8/2/1 1/3/1
f 4/1/2 1/2/2 3/3/2
f 11/4/3 3/2/3 9/5/3
f 9/4/4 1/2/4 12/5/4
f 10/4/5 4/2/5 11/5/5
f 7/1/6 6/2/6 8/3/6
f 7/1/5 11/5/5 5/3/5
f 9/5/3 15/3/3 6/3/3
f 5/1/3 9/5/3 6/3/3
f 15/1/4 13/5/4 14/3/4
f 8/3/1 13/3/1 12/3/1
f 12/5/2 16/4/2 9/4/2
f 6/2/6 14/3/6 8/3/6
f 20/6/6 27/7/6 25/8/6
f 22/9/2 26/10/2 28/11/2
f 17/12/6 32/11/6 21/11/6
f 20/13/3 22/9/3 24/14/3
f 23/7/1 25/15/1 27/7/1
f 30/12/5 18/16/5 20/6/5
f 21/11/1 26/12/1 17/12/1
f 31/7/1 30/12/1 29/15/1
f 23/7/2 29/15/2 19/15/2
f 22/9/4 31/7/4 24/14/4
f 2/1/1 7/17/1 8/2/1
f 4/1/2 2/17/2 1/2/2
f 11/4/3 4/17/3 3/2/3
f 9/4/4 3/17/4 1/2/4
f 10/4/5 2/17/5 4/2/5
f 7/1/6 5/17/6 6/2/6
f 7/1/5 10/4/5 11/5/5
f 9/5/3 16/5/3 15/3/3
f 5/1/3 11/4/3 9/5/3
f 15/1/4 16/4/4 13/5/4
f 8/3/1 14/3/1 13/3/1
f 12/5/2 13/5/2 16/4/2
f 6/2/6 15/2/6 14/3/6
f 20/6/6 24/14/6 27/7/6
f 22/9/2 18/18/2 26/10/2
f 17/12/6 30/12/6 32/11/6
f 20/13/3 18/16/3 22/9/3
f 23/7/1 19/15/1 25/15/1
f 30/12/5 17/12/5 26/10/5
f 20/6/5 25/15/5 19/15/5
f 20/6/5 19/15/5 29/15/5
f 30/12/5 26/10/5 18/16/5
f 20/6/5 29/15/5 30/12/5
f 21/11/1 28/11/1 26/12/1
f 31/7/1 32/11/1 30/12/1
f 23/7/2 31/7/2 29/15/2
f 22/9/4 28/11/4 21/11/4
f 22/9/4 21/11/4 32/11/4
f 23/7/4 27/7/4 24/14/4
f 22/9/4 32/11/4 31/7/4
f 31/7/4 23/7/4 24/14/4
