# Blender 4.2.1 LTS
# www.blender.org
mtllib Cylinder.mtl
o Cylinder
v -0.000000 -0.500000 -0.094709
v -0.000000 -0.464645 -0.183075
v -0.000000 -0.426648 -0.224067
v 0.000000 -0.350000 -0.250000
v 0.000000 0.500000 -0.094709
v 0.000000 0.464645 -0.183075
v 0.000000 0.350000 -0.250000
v 0.000000 0.426648 -0.224067
v 0.047354 -0.500000 -0.082020
v 0.091537 -0.464645 -0.158548
v 0.125000 -0.350000 -0.216506
v 0.112034 -0.426648 -0.194048
v 0.047354 0.500000 -0.082020
v 0.091537 0.464645 -0.158548
v 0.112034 0.426648 -0.194048
v 0.125000 0.350000 -0.216506
v 0.082020 -0.500000 -0.047354
v 0.158548 -0.464645 -0.091537
v 0.216506 -0.350000 -0.125000
v 0.194048 -0.426648 -0.112034
v 0.082020 0.500000 -0.047354
v 0.158548 0.464645 -0.091537
v 0.194048 0.426648 -0.112034
v 0.216506 0.350000 -0.125000
v 0.094709 -0.500000 -0.000000
v 0.183075 -0.464645 -0.000000
v 0.250000 -0.350000 0.000000
v 0.224067 -0.426648 -0.000000
v 0.094709 0.500000 0.000000
v 0.183075 0.464645 0.000000
v 0.224067 0.426648 0.000000
v 0.250000 0.350000 0.000000
v 0.082020 -0.500000 0.047354
v 0.158548 -0.464645 0.091537
v 0.216506 -0.350000 0.125000
v 0.194048 -0.426648 0.112034
v 0.082020 0.500000 0.047354
v 0.158548 0.464645 0.091537
v 0.194048 0.426648 0.112034
v 0.216506 0.350000 0.125000
v 0.047354 -0.500000 0.082020
v 0.091537 -0.464645 0.158548
v 0.125000 -0.350000 0.216506
v 0.112034 -0.426648 0.194048
v 0.047354 0.500000 0.082020
v 0.091537 0.464645 0.158548
v 0.112034 0.426648 0.194048
v 0.125000 0.350000 0.216506
v 0.000000 -0.500000 0.094709
v 0.000000 -0.464645 0.183075
v 0.000000 -0.350000 0.250000
v 0.000000 -0.426648 0.224067
v -0.000000 0.500000 0.094709
v -0.000000 0.464645 0.183075
v -0.000000 0.426648 0.224067
v 0.000000 0.350000 0.250000
v -0.047354 -0.500000 0.082020
v -0.091537 -0.464645 0.158548
v -0.125000 -0.350000 0.216506
v -0.112034 -0.426648 0.194048
v -0.047354 0.500000 0.082020
v -0.091537 0.464645 0.158548
v -0.112034 0.426648 0.194048
v -0.125000 0.350000 0.216506
v -0.082020 -0.500000 0.047354
v -0.158548 -0.464645 0.091537
v -0.216506 -0.350000 0.125000
v -0.194048 -0.426648 0.112034
v -0.082020 0.500000 0.047354
v -0.158548 0.464645 0.091537
v -0.194048 0.426648 0.112034
v -0.216506 0.350000 0.125000
v -0.094709 -0.500000 0.000000
v -0.183075 -0.464645 0.000000
v -0.250000 -0.350000 0.000000
v -0.224067 -0.426648 0.000000
v -0.094709 0.500000 -0.000000
v -0.183075 0.464645 -0.000000
v -0.224067 0.426648 -0.000000
v -0.250000 0.350000 0.000000
v -0.082020 -0.500000 -0.047354
v -0.158548 -0.464645 -0.091537
v -0.216506 -0.350000 -0.125000
v -0.194048 -0.426648 -0.112034
v -0.082020 0.500000 -0.047354
v -0.158548 0.464645 -0.091537
v -0.194048 0.426648 -0.112034
v -0.216506 0.350000 -0.125000
v -0.047354 -0.500000 -0.082020
v -0.091537 -0.464645 -0.158548
v -0.125000 -0.350000 -0.216506
v -0.112034 -0.426648 -0.194048
v -0.047354 0.500000 -0.082020
v -0.091537 0.464645 -0.158548
v -0.112034 0.426648 -0.194048
v -0.125000 0.350000 -0.216506
vn -0.1792 0.7215 -0.6688
vn 0.6688 0.7215 -0.1792
vn 0.6688 0.7215 0.1792
vn 0.4896 0.7215 0.4896
vn 0.1792 0.7215 0.6688
vn -0.1792 0.7215 0.6688
vn -0.4896 0.7215 0.4896
vn -0.6688 0.7215 0.1792
vn -0.6688 0.7215 -0.1792
vn -0.4896 0.7215 -0.4896
vn 0.4896 0.7215 -0.4896
vn 0.4896 -0.7215 -0.4896
vn -0.2588 -0.0000 -0.9659
vn -0.0000 -1.0000 -0.0000
vn -0.0000 1.0000 -0.0000
vn 0.7071 -0.0000 -0.7071
vn 0.6688 -0.7215 -0.1792
vn 0.9659 -0.0000 -0.2588
vn 0.6688 -0.7215 0.1792
vn 0.9659 -0.0000 0.2588
vn 0.4896 -0.7215 0.4896
vn 0.7071 -0.0000 0.7071
vn 0.1792 -0.7215 0.6688
vn 0.2588 -0.0000 0.9659
vn -0.1792 -0.7215 0.6688
vn -0.2588 -0.0000 0.9659
vn -0.4896 -0.7215 0.4896
vn -0.7071 -0.0000 0.7071
vn -0.6688 -0.7215 0.1792
vn -0.9659 -0.0000 0.2588
vn -0.6688 -0.7215 -0.1792
vn -0.9659 -0.0000 -0.2588
vn -0.4896 -0.7215 -0.4896
vn -0.7071 -0.0000 -0.7071
vn 0.1792 -0.7215 -0.6688
vn 0.1792 0.7215 -0.6688
vn 0.2588 -0.0000 -0.9659
vn 0.2460 -0.3106 -0.9181
vn 0.0990 -0.9239 -0.3696
vn 0.2460 0.3106 -0.9181
vn 0.0990 0.9239 -0.3696
vn 0.6721 -0.3106 -0.6721
vn 0.2706 -0.9239 -0.2706
vn 0.6721 0.3106 -0.6721
vn 0.2706 0.9239 -0.2706
vn 0.9181 -0.3106 -0.2460
vn 0.3696 -0.9239 -0.0990
vn 0.9181 0.3106 -0.2460
vn 0.3696 0.9239 -0.0990
vn 0.9181 -0.3106 0.2460
vn 0.3696 -0.9239 0.0990
vn 0.9181 0.3106 0.2460
vn 0.3696 0.9239 0.0990
vn 0.6721 -0.3106 0.6721
vn 0.2706 -0.9239 0.2706
vn 0.6721 0.3106 0.6721
vn 0.2706 0.9239 0.2706
vn 0.2460 -0.3106 0.9181
vn 0.0990 -0.9239 0.3696
vn 0.2460 0.3106 0.9181
vn 0.0990 0.9239 0.3696
vn -0.2460 -0.3106 0.9181
vn -0.0990 -0.9239 0.3696
vn -0.2460 0.3106 0.9181
vn -0.0990 0.9239 0.3696
vn -0.6721 -0.3106 0.6721
vn -0.2706 -0.9239 0.2706
vn -0.6721 0.3106 0.6721
vn -0.2706 0.9239 0.2706
vn -0.9181 -0.3106 0.2460
vn -0.3696 -0.9239 0.0990
vn -0.9181 0.3106 0.2460
vn -0.3696 0.9239 0.0990
vn -0.9181 -0.3106 -0.2460
vn -0.3696 -0.9239 -0.0990
vn -0.9181 0.3106 -0.2460
vn -0.3696 0.9239 -0.0990
vn -0.6721 -0.3106 -0.6721
vn -0.2706 -0.9239 -0.2706
vn -0.6721 0.3106 -0.6721
vn -0.2706 0.9239 -0.2706
vn -0.2460 -0.3106 -0.9181
vn -0.0990 -0.9239 -0.3696
vn -0.2460 0.3106 -0.9181
vn -0.0990 0.9239 -0.3696
vn -0.1792 -0.7215 -0.6688
vt -0.000000 0.715405
vt 0.027998 0.789918
vt -0.000000 0.797420
vt 0.112034 0.909453
vt 0.186546 0.881455
vt 0.194048 0.909453
vt 0.244578 0.847950
vt 0.265074 0.868446
vt 0.278083 0.789918
vt 0.306082 0.797420
vt 0.278083 0.722907
vt 0.306082 0.715405
vt 0.244578 0.664875
vt 0.265074 0.644379
vt 0.186546 0.631370
vt 0.194048 0.603372
vt 0.119536 0.631370
vt 0.112034 0.603372
vt 0.061503 0.664875
vt 0.041007 0.644379
vt 0.027998 0.722907
vt 0.041007 0.868446
vt 0.119536 0.881455
vt 0.347089 0.644379
vt 0.334080 0.722907
vt 0.079247 0.054199
vt 0.170753 0.549173
vt 0.079247 0.549173
vt 0.441790 0.691725
vt 0.523810 0.773745
vt 0.411768 0.803767
vt 0.105687 0.709058
vt 0.217728 0.739080
vt 0.135708 0.821100
vt 0.250000 0.054199
vt 0.329247 0.549173
vt 0.250000 0.549173
vt 0.418115 0.603372
vt 0.367585 0.664875
vt 0.329247 0.054199
vt 0.420753 0.549173
vt 0.500130 0.603372
vt 0.425617 0.631370
vt 0.420753 0.054199
vt 0.500000 0.549173
vt 0.571156 0.644379
vt 0.492627 0.631370
vt 0.500000 0.054199
vt 0.579247 0.549173
vt 0.612163 0.715405
vt 0.550660 0.664875
vt 0.579247 0.054199
vt 0.670753 0.549173
vt 0.612163 0.797420
vt 0.584165 0.722907
vt 0.670753 0.054199
vt 0.750000 0.549173
vt 0.571156 0.868446
vt 0.584165 0.789918
vt 0.750000 0.054199
vt 0.829247 0.549173
vt 0.500130 0.909453
vt 0.550660 0.847950
vt 0.829247 0.054199
vt 0.920753 0.549173
vt 0.418115 0.909453
vt 0.492627 0.881455
vt 0.920753 0.054199
vt 1.000000 0.549173
vt 0.347089 0.868446
vt 0.425617 0.881455
vt 0.000000 0.054199
vt 0.000000 0.549173
vt 0.334080 0.789918
vt 0.306082 0.797420
vt 0.061503 0.847950
vt 0.170753 0.054199
vt 0.166007 0.603372
vt 0.394435 0.773745
vt 0.394435 0.739080
vt 0.237034 0.000000
vt 0.105687 0.803767
vt 0.088354 0.773745
vt 0.262966 0.603372
vt 0.411768 0.709058
vt 0.333993 0.000000
vt 0.333993 0.603372
vt 0.416007 0.000000
vt 0.170374 0.821100
vt 0.416007 0.603372
vt 0.476455 0.691725
vt 0.487034 0.000000
vt 0.200395 0.803767
vt 0.512966 0.603372
vt 0.506477 0.709058
vt 0.583993 0.000000
vt 0.217728 0.773745
vt 0.583993 0.603372
vt 0.523810 0.739080
vt 0.666007 0.000000
vt 0.666007 0.603372
vt 0.737034 0.000000
vt 0.200395 0.709058
vt 0.762966 0.603372
vt 0.506477 0.803767
vt 0.833993 0.000000
vt 0.170374 0.691725
vt 0.833993 0.603372
vt 0.476455 0.821100
vt 0.916007 0.000000
vt 0.135708 0.691725
vt 0.916007 0.603372
vt 0.441790 0.821100
vt 0.987034 0.000000
vt 1.000000 0.054199
vt 0.012966 0.603372
vt 0.367585 0.847950
vt 0.083993 0.000000
vt 0.088354 0.739080
vt 0.083993 0.603372
vt 0.166007 0.000000
vt 0.237034 0.603372
vt 0.262966 0.000000
vt 0.487034 0.603372
vt 0.512966 0.000000
vt 0.737034 0.603372
vt 0.762966 0.000000
vt 0.987034 0.603372
vt 0.012966 0.000000
s 0
usemtl 
f 95/1/1 6/2/1 8/3/1
f 23/4/2 30/5/2 31/6/2
f 31/6/3 38/7/3 39/8/3
f 39/8/4 46/9/4 47/10/4
f 47/10/5 54/11/5 55/12/5
f 55/12/6 62/13/6 63/14/6
f 63/14/7 70/15/7 71/16/7
f 71/16/8 78/17/8 79/18/8
f 79/18/9 86/19/9 87/20/9
f 87/20/10 94/21/10 95/1/10
f 15/22/11 22/23/11 23/4/11
f 20/24/12 10/25/12 12/12/12
f 96/26/13 4/27/13 91/28/13
f 25/29/14 57/30/14 89/31/14
f 85/32/15 53/33/15 21/34/15
f 16/35/16 19/36/16 11/37/16
f 28/38/17 18/39/17 20/24/17
f 24/40/18 27/41/18 19/36/18
f 36/42/19 26/43/19 28/38/19
f 32/44/20 35/45/20 27/41/20
f 44/46/21 34/47/21 36/42/21
f 40/48/22 43/49/22 35/45/22
f 52/50/23 42/51/23 44/46/23
f 48/52/24 51/53/24 43/49/24
f 60/54/25 50/55/25 52/50/25
f 56/56/26 59/57/26 51/53/26
f 68/58/27 58/59/27 60/54/27
f 64/60/28 67/61/28 59/57/28
f 76/62/29 66/63/29 68/58/29
f 72/64/30 75/65/30 67/61/30
f 84/66/31 74/67/31 76/62/31
f 80/68/32 83/69/32 75/65/32
f 92/70/33 82/71/33 84/66/33
f 88/72/34 91/28/34 83/73/34
f 12/12/35 2/74/35 3/75/35
f 8/3/36 14/76/36 15/22/36
f 7/77/37 11/37/37 4/27/37
f 11/37/38 3/78/38 4/27/38
f 1/79/39 10/25/39 9/80/39
f 7/77/40 15/81/40 16/35/40
f 13/82/41 6/2/41 5/83/41
f 19/36/42 12/84/42 11/37/42
f 9/80/43 18/39/43 17/85/43
f 16/35/44 23/86/44 24/40/44
f 21/34/45 14/76/45 13/82/45
f 27/41/46 20/87/46 19/36/46
f 17/85/47 26/43/47 25/29/47
f 24/40/48 31/88/48 32/44/48
f 29/89/49 22/23/49 21/34/49
f 35/45/50 28/90/50 27/41/50
f 25/29/51 34/47/51 33/91/51
f 32/44/52 39/92/52 40/48/52
f 37/93/53 30/5/53 29/89/53
f 43/49/54 36/94/54 35/45/54
f 33/91/55 42/51/55 41/95/55
f 40/48/56 47/96/56 48/52/56
f 45/97/57 38/7/57 37/93/57
f 51/53/58 44/98/58 43/49/58
f 41/95/59 50/55/59 49/99/59
f 48/52/60 55/100/60 56/56/60
f 53/33/61 46/9/61 45/97/61
f 59/57/62 52/101/62 51/53/62
f 49/99/63 58/59/63 57/30/63
f 56/56/64 63/102/64 64/60/64
f 61/103/65 54/11/65 53/33/65
f 67/61/66 60/104/66 59/57/66
f 57/30/67 66/63/67 65/105/67
f 64/60/68 71/106/68 72/64/68
f 69/107/69 62/13/69 61/103/69
f 75/65/70 68/108/70 67/61/70
f 65/105/71 74/67/71 73/109/71
f 72/64/72 79/110/72 80/68/72
f 77/111/73 70/15/73 69/107/73
f 83/69/74 76/112/74 75/65/74
f 73/109/75 82/71/75 81/113/75
f 80/68/76 87/114/76 88/115/76
f 85/32/77 78/17/77 77/111/77
f 91/28/78 84/116/78 83/73/78
f 81/113/79 90/117/79 89/31/79
f 88/72/80 95/118/80 96/26/80
f 93/119/81 86/19/81 85/32/81
f 4/27/82 92/120/82 91/28/82
f 89/31/83 2/74/83 1/79/83
f 96/26/84 8/121/84 7/77/84
f 5/83/85 94/21/85 93/119/85
f 3/75/86 90/117/86 92/70/86
f 95/1/1 94/21/1 6/2/1
f 23/4/2 22/23/2 30/5/2
f 31/6/3 30/5/3 38/7/3
f 39/8/4 38/7/4 46/9/4
f 47/10/5 46/9/5 54/11/5
f 55/12/6 54/11/6 62/13/6
f 63/14/7 62/13/7 70/15/7
f 71/16/8 70/15/8 78/17/8
f 79/18/9 78/17/9 86/19/9
f 87/20/10 86/19/10 94/21/10
f 15/22/11 14/76/11 22/23/11
f 20/24/12 18/39/12 10/25/12
f 96/26/13 7/77/13 4/27/13
f 89/31/14 1/79/14 9/80/14
f 9/80/14 17/85/14 25/29/14
f 25/29/14 33/91/14 41/95/14
f 41/95/14 49/99/14 57/30/14
f 57/30/14 65/105/14 73/109/14
f 73/109/14 81/113/14 89/31/14
f 89/31/14 9/80/14 25/29/14
f 25/29/14 41/95/14 57/30/14
f 57/30/14 73/109/14 89/31/14
f 21/34/15 13/82/15 5/83/15
f 5/83/15 93/119/15 85/32/15
f 85/32/15 77/111/15 69/107/15
f 69/107/15 61/103/15 53/33/15
f 53/33/15 45/97/15 37/93/15
f 37/93/15 29/89/15 21/34/15
f 21/34/15 5/83/15 85/32/15
f 85/32/15 69/107/15 53/33/15
f 53/33/15 37/93/15 21/34/15
f 16/35/16 24/40/16 19/36/16
f 28/38/17 26/43/17 18/39/17
f 24/40/18 32/44/18 27/41/18
f 36/42/19 34/47/19 26/43/19
f 32/44/20 40/48/20 35/45/20
f 44/46/21 42/51/21 34/47/21
f 40/48/22 48/52/22 43/49/22
f 52/50/23 50/55/23 42/51/23
f 48/52/24 56/56/24 51/53/24
f 60/54/25 58/59/25 50/55/25
f 56/56/26 64/60/26 59/57/26
f 68/58/27 66/63/27 58/59/27
f 64/60/28 72/64/28 67/61/28
f 76/62/29 74/67/29 66/63/29
f 72/64/30 80/68/30 75/65/30
f 84/66/31 82/71/31 74/67/31
f 80/68/32 88/115/32 83/69/32
f 92/70/33 90/117/33 82/71/33
f 88/72/34 96/26/34 91/28/34
f 12/12/35 10/25/35 2/74/35
f 8/3/36 6/2/36 14/76/36
f 7/77/37 16/35/37 11/37/37
f 11/37/38 12/122/38 3/78/38
f 1/79/39 2/74/39 10/25/39
f 7/77/40 8/121/40 15/81/40
f 13/82/41 14/76/41 6/2/41
f 19/36/42 20/87/42 12/84/42
f 9/80/43 10/25/43 18/39/43
f 16/35/44 15/123/44 23/86/44
f 21/34/45 22/23/45 14/76/45
f 27/41/46 28/90/46 20/87/46
f 17/85/47 18/39/47 26/43/47
f 24/40/48 23/86/48 31/88/48
f 29/89/49 30/5/49 22/23/49
f 35/45/50 36/124/50 28/90/50
f 25/29/51 26/43/51 34/47/51
f 32/44/52 31/88/52 39/92/52
f 37/93/53 38/7/53 30/5/53
f 43/49/54 44/98/54 36/94/54
f 33/91/55 34/47/55 42/51/55
f 40/48/56 39/125/56 47/96/56
f 45/97/57 46/9/57 38/7/57
f 51/53/58 52/101/58 44/98/58
f 41/95/59 42/51/59 50/55/59
f 48/52/60 47/96/60 55/100/60
f 53/33/61 54/11/61 46/9/61
f 59/57/62 60/126/62 52/101/62
f 49/99/63 50/55/63 58/59/63
f 56/56/64 55/100/64 63/102/64
f 61/103/65 62/13/65 54/11/65
f 67/61/66 68/108/66 60/104/66
f 57/30/67 58/59/67 66/63/67
f 64/60/68 63/127/68 71/106/68
f 69/107/69 70/15/69 62/13/69
f 75/65/70 76/112/70 68/108/70
f 65/105/71 66/63/71 74/67/71
f 72/64/72 71/106/72 79/110/72
f 77/111/73 78/17/73 70/15/73
f 83/69/74 84/128/74 76/112/74
f 73/109/75 74/67/75 82/71/75
f 80/68/76 79/110/76 87/114/76
f 85/32/77 86/19/77 78/17/77
f 91/28/78 92/120/78 84/116/78
f 81/113/79 82/71/79 90/117/79
f 88/72/80 87/129/80 95/118/80
f 93/119/81 94/21/81 86/19/81
f 4/27/82 3/78/82 92/120/82
f 89/31/83 90/117/83 2/74/83
f 96/26/84 95/118/84 8/121/84
f 5/83/85 6/2/85 94/21/85
f 3/75/86 2/74/86 90/117/86
