# Blender 4.2.1 LTS
# www.blender.org
mtllib Room.mtl
o Room
v -1.000000 3.000001 -4.000000
v 3.000000 3.000001 -4.000000
v -1.000000 0.000000 -4.000000
v 3.000000 0.000000 -4.000000
v 3.000000 0.000000 4.000000
v -1.000000 0.000000 4.000000
v 3.000000 3.000000 4.000000
v -1.000000 3.000000 4.000000
v -1.000000 0.000000 0.500000
v 3.000000 3.000000 0.500000
v 3.000000 0.000000 0.500000
v -1.000000 3.000000 0.500000
v -3.000000 3.000000 0.500000
v -3.000000 3.000000 4.000000
v -3.000000 0.000000 4.000000
v -3.000000 0.000000 0.500000
v -1.000000 0.000000 0.600000
v -1.000000 0.700000 0.750000
v -1.000000 0.000000 -0.600000
v -1.000000 0.700000 -0.750000
v 0.000000 0.000000 0.600000
v 0.000000 0.700000 0.750000
v 0.000000 0.000000 -0.600000
v 0.000000 0.700000 -0.750000
v -1.000000 0.000000 -0.750000
v -1.000000 0.000000 0.750000
v 0.000000 0.000000 -0.750000
v 0.000000 0.000000 0.750000
v -1.000000 0.500000 -0.600000
v -1.000000 0.500000 0.600000
v 0.000000 0.500000 -0.600000
v 0.000000 0.500000 0.600000
vn -0.0000 -1.0000 -0.0000
vn -0.0000 -0.0000 1.0000
vn -0.0000 1.0000 -0.0000
vn 1.0000 -0.0000 -0.0000
vn -1.0000 -0.0000 -0.0000
vn -0.0000 -0.0000 -1.0000
vt 1.000000 0.000000
vt 0.000000 1.000000
vt 0.000000 0.000000
vt 1.000000 0.500000
vt 0.000000 0.500000
vt 1.000000 1.000000
vt 0.625000 0.250000
vt 0.375000 0.500000
vt 0.375000 0.250000
vt 0.625000 0.750000
vt 0.375000 1.000000
vt 0.375000 0.750000
vt 0.125000 0.750000
vt 0.875000 0.500000
vt 0.625000 0.500000
vt 0.125000 0.500000
vt 0.875000 0.750000
vt 0.625000 1.000000
s 0
f 2/1/1 8/2/1 1/3/1
f 4/1/2 1/2/2 3/3/2
f 11/4/3 3/2/3 9/5/3
f 9/4/4 1/2/4 12/5/4
f 11/5/5 2/6/5 4/2/5
f 8/3/6 5/6/6 6/2/6
f 5/3/5 10/4/5 11/5/5
f 9/5/3 15/3/3 6/3/3
f 5/1/3 9/5/3 6/3/3
f 15/1/4 13/5/4 14/3/4
f 8/3/1 13/3/1 12/3/1
f 12/5/2 16/4/2 9/4/2
f 8/3/6 15/2/6 14/3/6
f 20/7/6 27/8/6 25/9/6
f 22/10/2 26/11/2 28/12/2
f 17/13/6 32/12/6 21/12/6
f 20/14/3 22/10/3 24/15/3
f 19/16/1 27/8/1 23/8/1
f 30/13/5 18/17/5 20/7/5
f 21/12/1 26/13/1 17/13/1
f 31/8/1 30/13/1 29/16/1
f 23/8/2 29/16/2 19/16/2
f 22/10/4 31/8/4 24/15/4
f 2/1/1 7/6/1 8/2/1
f 4/1/2 2/6/2 1/2/2
f 11/4/3 4/6/3 3/2/3
f 9/4/4 3/6/4 1/2/4
f 11/5/5 10/4/5 2/6/5
f 8/3/6 7/1/6 5/6/6
f 5/3/5 7/1/5 10/4/5
f 9/5/3 16/5/3 15/3/3
f 5/1/3 11/4/3 9/5/3
f 15/1/4 16/4/4 13/5/4
f 8/3/1 14/3/1 13/3/1
f 12/5/2 13/5/2 16/4/2
f 8/3/6 6/2/6 15/2/6
f 20/7/6 24/15/6 27/8/6
f 22/10/2 18/18/2 26/11/2
f 17/13/6 30/13/6 32/12/6
f 20/14/3 18/17/3 22/10/3
f 19/16/1 25/16/1 27/8/1
f 30/13/5 17/13/5 26/11/5
f 20/7/5 25/16/5 19/16/5
f 20/7/5 19/16/5 29/16/5
f 30/13/5 26/11/5 18/17/5
f 20/7/5 29/16/5 30/13/5
f 21/12/1 28/12/1 26/13/1
f 31/8/1 32/12/1 30/13/1
f 23/8/2 31/8/2 29/16/2
f 22/10/4 28/12/4 21/12/4
f 22/10/4 21/12/4 32/12/4
f 23/8/4 27/8/4 24/15/4
f 22/10/4 32/12/4 31/8/4
f 31/8/4 23/8/4 24/15/4
